<svg width="43" height="43" viewBox="0 0 43 43" fill="none" xmlns="http://www.w3.org/2000/svg">
<path d="M35.3857 36.7292H21.4554L18.7679 34.0417H35.3857C36.1278 34.0417 36.7295 33.44 36.7295 32.6979V15.6771C36.7295 14.935 36.1278 14.3333 35.3857 14.3333H13.8857C13.1436 14.3333 12.542 14.935 12.542 15.6771V20.0792C11.6877 19.8377 10.7862 19.7083 9.85449 19.7083V15.6771C9.85449 13.4507 11.6593 11.6458 13.8857 11.6458H31.3545V9.40625C31.3545 8.66412 30.7528 8.0625 30.0107 8.0625H8.51074C7.27385 8.0625 6.27116 9.06519 6.27116 10.3021V20.38C5.28891 20.7636 4.3833 21.3004 3.58366 21.9608V10.3021C3.58366 7.58094 5.78959 5.375 8.51074 5.375H30.0107C32.2371 5.375 34.042 7.17985 34.042 9.40625V11.6458H35.3857C37.6121 11.6458 39.417 13.4507 39.417 15.6771V32.6979C39.417 34.9242 37.6121 36.7292 35.3857 36.7292ZM14.5261 36.1345C13.2081 37.073 11.5958 37.625 9.85449 37.625C5.4017 37.625 1.79199 34.0153 1.79199 29.5625C1.79199 25.1097 5.4017 21.5 9.85449 21.5C14.3073 21.5 17.917 25.1097 17.917 29.5625C17.917 31.3038 17.365 32.9161 16.4264 34.2341L21.1067 38.9145C21.6315 39.4392 21.6315 40.2899 21.1067 40.8147C20.5819 41.3395 19.7312 41.3395 19.2065 40.8147L14.5261 36.1345ZM4.47949 29.5625C4.47949 32.5311 6.88597 34.9375 9.85449 34.9375C12.823 34.9375 15.2295 32.5311 15.2295 29.5625C15.2295 26.5939 12.823 24.1875 9.85449 24.1875C6.88597 24.1875 4.47949 26.5939 4.47949 29.5625Z" fill="#212121"/>
</svg>
