<svg width="43" height="43" viewBox="0 0 43 43" fill="none" xmlns="http://www.w3.org/2000/svg">
<path d="M14.3337 16.125C13.5915 16.125 12.9899 16.7266 12.9899 17.4687C12.9899 18.2109 13.5915 18.8125 14.3337 18.8125H28.667C29.4091 18.8125 30.0107 18.2109 30.0107 17.4687C30.0107 16.7266 29.4091 16.125 28.667 16.125H14.3337ZM20.1566 24.6354C20.1566 23.8933 20.7582 23.2917 21.5003 23.2917H28.667C29.4091 23.2917 30.0107 23.8933 30.0107 24.6354C30.0107 25.3775 29.4091 25.9792 28.667 25.9792H21.5003C20.7582 25.9792 20.1566 25.3775 20.1566 24.6354ZM17.917 30.4583C17.1749 30.4583 16.5732 31.06 16.5732 31.8021C16.5732 32.5442 17.1749 33.1458 17.917 33.1458H28.667C29.4091 33.1458 30.0107 32.5442 30.0107 31.8021C30.0107 31.06 29.4091 30.4583 28.667 30.4583H17.917ZM28.6423 7.16566C28.419 5.15053 26.7103 3.58333 24.6357 3.58333H18.3649C16.2902 3.58333 14.5816 5.15053 14.3584 7.16566L11.1982 7.16666C8.97185 7.16666 7.16699 8.97152 7.16699 11.1979V35.3854C7.16699 37.6117 8.97185 39.4167 11.1982 39.4167H31.8024C34.0287 39.4167 35.8337 37.6117 35.8337 35.3854V11.1979C35.8337 8.97152 34.0287 7.16666 31.8024 7.16666L28.6423 7.16566ZM28.6577 7.33857L28.667 7.61458C28.667 7.52181 28.6639 7.42977 28.6577 7.33857ZM18.3649 11.6458H24.6357C26.0332 11.6458 27.2648 10.9347 27.988 9.85445L31.8024 9.85416C32.5445 9.85416 33.1462 10.4558 33.1462 11.1979V35.3854C33.1462 36.1275 32.5445 36.7292 31.8024 36.7292H11.1982C10.4561 36.7292 9.85449 36.1275 9.85449 35.3854V11.1979C9.85449 10.4558 10.4561 9.85416 11.1982 9.85416L15.0127 9.85452C15.7359 10.9347 16.9674 11.6458 18.3649 11.6458ZM18.3649 6.27083H24.6357C25.3778 6.27083 25.9795 6.87245 25.9795 7.61458C25.9795 8.3567 25.3778 8.95833 24.6357 8.95833H18.3649C17.6228 8.95833 17.0212 8.3567 17.0212 7.61458C17.0212 6.87245 17.6228 6.27083 18.3649 6.27083Z" fill="#212121"/>
</svg>
