<svg width="24" height="24" viewBox="0 0 24 24" fill="none" xmlns="http://www.w3.org/2000/svg">
<circle cx="12" cy="12" r="11" fill="#E2F6DF"/>
<path d="M10.174 9.68604C10.174 8.95549 11.2424 8.83075 12.1693 8.83075C13.0428 8.83075 14.2364 9.24015 15.2344 9.75756L15.43 7.74402C14.9309 7.45867 13.773 7.12004 12.5969 7.04927L12.8819 5H10.9753L11.2607 7.04927C8.80201 7.28058 8 8.70594 8 9.89986C8 12.911 13.6122 12.2702 13.6122 14.1225C13.6122 14.818 12.9535 15.0669 11.795 15.0669C10.2273 15.0669 9.05087 14.5151 8.44551 13.9445L8.1423 16.2076C8.71299 16.5462 9.87049 16.8491 11.2607 16.9206L10.9753 18.8984H12.8819L12.5969 16.9024C15.4833 16.6528 16 15.1202 16 14.105C16.0001 10.5238 10.174 11.4142 10.174 9.68604Z" fill="#3C9428"/>
</svg>
