<svg width="20" height="21" viewBox="0 0 20 21" fill="none" xmlns="http://www.w3.org/2000/svg">
<path d="M15.2082 17.5833C15.5533 17.5832 15.8333 17.863 15.8333 18.2081C15.8333 18.5533 15.5537 18.8332 15.2085 18.8333L4.37518 18.8365C4.03 18.8365 3.75 18.5568 3.75 18.2116C3.75 17.8665 4.02964 17.5865 4.37482 17.5865L15.2082 17.5833ZM9.70683 2.17648L9.79167 2.17078C10.1081 2.17078 10.3696 2.40591 10.411 2.71097L10.4167 2.79578L10.4158 14.2L13.5173 11.0997C13.7393 10.8778 14.0865 10.8576 14.3312 11.0392L14.4012 11.0998C14.6231 11.3217 14.6432 11.6689 14.4617 11.9135L14.4012 11.9836L10.2364 16.1475C10.0147 16.3692 9.66767 16.3895 9.423 16.2082L9.35292 16.1477L5.18336 11.9839C4.93912 11.74 4.93884 11.3443 5.18276 11.1C5.40449 10.878 5.7517 10.8575 5.9965 11.039L6.06664 11.0994L9.16583 14.1941L9.16667 2.79578C9.16667 2.47937 9.40183 2.21787 9.70683 2.17648Z" fill="#5C5C5C"/>
</svg>
