<svg width="303" height="343" viewBox="0 0 303 343" fill="none" xmlns="http://www.w3.org/2000/svg">
<path d="M161.44 59.84C161.26 59.8405 161.083 59.7924 160.929 59.7009C160.774 59.6094 160.646 59.4778 160.56 59.32L154.9 48.92L144.52 43.3C144.362 43.2137 144.231 43.0863 144.139 42.9315C144.048 42.7766 144 42.5999 144 42.42C144.003 42.241 144.055 42.0662 144.15 41.9146C144.245 41.763 144.38 41.6404 144.54 41.56L154.94 35.9L160.64 25.52C160.728 25.3636 160.856 25.2331 161.01 25.1418C161.165 25.0505 161.341 25.0016 161.52 25C161.7 24.9995 161.877 25.0476 162.031 25.1391C162.186 25.2306 162.314 25.3622 162.4 25.52L168.06 35.94L178.44 41.64C178.596 41.728 178.727 41.8557 178.818 42.0102C178.909 42.1647 178.958 42.3405 178.96 42.52C178.951 42.7001 178.896 42.875 178.802 43.0287C178.708 43.1824 178.576 43.3101 178.42 43.4L168.02 49.06L162.32 59.3C162.235 59.4602 162.108 59.5947 161.953 59.6896C161.799 59.7845 161.621 59.8364 161.44 59.84ZM147.1 42.34L156.12 47.3C156.286 47.3962 156.424 47.5341 156.52 47.7L161.44 56.76L166.42 47.72C166.504 47.5568 166.637 47.4239 166.8 47.34L175.8 42.42L166.78 37.44C166.61 37.3499 166.47 37.2105 166.38 37.04L161.46 27.98L156.48 37.02C156.39 37.1905 156.25 37.3299 156.08 37.42L147.1 42.34Z" fill="#2AAFEB"/>
<path d="M124.98 342.08C124.803 342.081 124.628 342.033 124.477 341.942C124.325 341.85 124.201 341.718 124.12 341.56L118.26 330.78L107.52 324.88C107.364 324.792 107.233 324.664 107.142 324.51C107.051 324.355 107.002 324.179 107 324C107 323.82 107.048 323.643 107.139 323.489C107.231 323.334 107.362 323.206 107.52 323.12L118.3 317.26L124.3 306.52C124.388 306.364 124.516 306.233 124.67 306.142C124.825 306.051 125.001 306.002 125.18 306C125.36 306 125.537 306.048 125.691 306.139C125.846 306.231 125.974 306.362 126.06 306.52L131.92 317.3L142.66 323.3C142.818 323.386 142.949 323.514 143.041 323.669C143.132 323.823 143.18 324 143.18 324.18C143.181 324.357 143.133 324.532 143.042 324.683C142.95 324.835 142.818 324.959 142.66 325.04L131.88 330.9L125.88 341.64C125.785 341.789 125.651 341.909 125.492 341.987C125.333 342.064 125.156 342.097 124.98 342.08ZM110 324.08L119.4 329.26C119.57 329.35 119.71 329.49 119.8 329.66L124.92 339.08L130.08 329.68C130.182 329.518 130.319 329.382 130.48 329.28L140 324.08L130.6 318.92C130.434 318.824 130.296 318.686 130.2 318.52L125.08 309.08L119.9 318.48C119.821 318.659 119.679 318.801 119.5 318.88L110 324.08Z" fill="#2AAFEB"/>
<path d="M20.74 166.06C20.4748 166.06 20.2204 165.955 20.0329 165.767C19.8453 165.58 19.74 165.325 19.74 165.06V154C19.74 153.735 19.8453 153.48 20.0329 153.293C20.2204 153.105 20.4748 153 20.74 153C21.0052 153 21.2596 153.105 21.4471 153.293C21.6346 153.48 21.74 153.735 21.74 154V165.06C21.74 165.325 21.6346 165.58 21.4471 165.767C21.2596 165.955 21.0052 166.06 20.74 166.06Z" fill="#0E0049"/>
<path d="M20.74 194.46C20.4748 194.46 20.2204 194.355 20.0329 194.167C19.8453 193.98 19.74 193.725 19.74 193.46V182.4C19.74 182.135 19.8453 181.88 20.0329 181.693C20.2204 181.505 20.4748 181.4 20.74 181.4C21.0052 181.4 21.2596 181.505 21.4471 181.693C21.6346 181.88 21.74 182.135 21.74 182.4V193.46C21.74 193.725 21.6346 193.98 21.4471 194.167C21.2596 194.355 21.0052 194.46 20.74 194.46Z" fill="#0E0049"/>
<path d="M40.4599 174.74H29.3999C29.1363 174.735 28.8849 174.628 28.6985 174.441C28.512 174.255 28.405 174.004 28.3999 173.74C28.3999 173.475 28.5053 173.22 28.6928 173.033C28.8803 172.845 29.1347 172.74 29.3999 172.74H40.4599C40.7251 172.74 40.9795 172.845 41.167 173.033C41.3545 173.22 41.4599 173.475 41.4599 173.74C41.4599 174.005 41.3545 174.26 41.167 174.447C40.9795 174.635 40.7251 174.74 40.4599 174.74Z" fill="#0E0049"/>
<path d="M12.06 174.74H1C0.736387 174.735 0.484999 174.628 0.298561 174.441C0.112123 174.255 0.00512015 174.004 0 173.74C0 173.475 0.105356 173.22 0.292892 173.033C0.480429 172.845 0.734784 172.74 1 172.74H12.06C12.3252 172.74 12.5796 172.845 12.7671 173.033C12.9546 173.22 13.06 173.475 13.06 173.74C13.06 174.005 12.9546 174.26 12.7671 174.447C12.5796 174.635 12.3252 174.74 12.06 174.74Z" fill="#0E0049"/>
<path d="M6.77998 188.68C6.52058 188.674 6.2721 188.574 6.07998 188.4C5.98625 188.307 5.91186 188.197 5.86109 188.075C5.81032 187.953 5.78418 187.822 5.78418 187.69C5.78418 187.558 5.81032 187.427 5.86109 187.305C5.91186 187.184 5.98625 187.073 6.07998 186.98L13.9 179.16C14.0883 178.972 14.3437 178.866 14.61 178.866C14.8763 178.866 15.1317 178.972 15.32 179.16C15.5083 179.348 15.6141 179.604 15.6141 179.87C15.6141 180.136 15.5083 180.392 15.32 180.58L7.49998 188.4C7.30271 188.579 7.04629 188.679 6.77998 188.68Z" fill="#0E0049"/>
<path d="M26.86 168.6C26.6006 168.594 26.3521 168.494 26.16 168.32C25.9755 168.13 25.8723 167.875 25.8723 167.61C25.8723 167.345 25.9755 167.09 26.16 166.9L33.98 159.08C34.073 158.986 34.1836 158.912 34.3054 158.861C34.4273 158.81 34.558 158.784 34.69 158.784C34.822 158.784 34.9527 158.81 35.0746 158.861C35.1964 158.912 35.307 158.986 35.4 159.08C35.5845 159.27 35.6877 159.525 35.6877 159.79C35.6877 160.055 35.5845 160.31 35.4 160.5L27.58 168.32C27.3827 168.499 27.1263 168.599 26.86 168.6Z" fill="#0E0049"/>
<path d="M14.6 168.6C14.3406 168.594 14.0921 168.494 13.9 168.32L6.07998 160.5C5.98674 160.407 5.91278 160.296 5.86232 160.174C5.81186 160.052 5.78589 159.922 5.78589 159.79C5.78589 159.658 5.81186 159.528 5.86232 159.406C5.91278 159.284 5.98674 159.173 6.07998 159.08C6.17322 158.987 6.28391 158.913 6.40573 158.862C6.52755 158.812 6.65812 158.786 6.78998 158.786C6.92184 158.786 7.0524 158.812 7.17422 158.862C7.29605 158.913 7.40674 158.987 7.49998 159.08L15.32 166.92C15.5045 167.11 15.6077 167.365 15.6077 167.63C15.6077 167.895 15.5045 168.15 15.32 168.34C15.1198 168.512 14.8637 168.604 14.6 168.6Z" fill="#0E0049"/>
<path d="M34.6799 188.68C34.4205 188.674 34.172 188.574 33.9799 188.4L26.2599 180.58C26.0716 180.392 25.9658 180.136 25.9658 179.87C25.9658 179.604 26.0716 179.348 26.2599 179.16C26.4482 178.972 26.7036 178.866 26.9699 178.866C27.2362 178.866 27.4916 178.972 27.6799 179.16L35.3999 186.92C35.5844 187.11 35.6876 187.365 35.6876 187.63C35.6876 187.895 35.5844 188.15 35.3999 188.34C35.212 188.541 34.9545 188.663 34.6799 188.68Z" fill="#0E0049"/>
<path d="M17.78 294.56C16.2413 294.56 14.7371 294.104 13.4577 293.249C12.1783 292.394 11.1811 291.179 10.5922 289.757C10.0034 288.336 9.8493 286.771 10.1495 285.262C10.4497 283.753 11.1907 282.367 12.2787 281.279C13.3668 280.191 14.753 279.45 16.2622 279.149C17.7714 278.849 19.3357 279.003 20.7573 279.592C22.1789 280.181 23.394 281.178 24.2488 282.458C25.1037 283.737 25.56 285.241 25.56 286.78C25.56 288.843 24.7403 290.822 23.2813 292.281C21.8223 293.74 19.8434 294.56 17.78 294.56ZM17.78 281C16.6368 281 15.5193 281.339 14.5688 281.974C13.6183 282.609 12.8775 283.512 12.44 284.568C12.0025 285.624 11.888 286.786 12.1111 287.908C12.3341 289.029 12.8846 290.059 13.6929 290.867C14.5013 291.675 15.5312 292.226 16.6524 292.449C17.7736 292.672 18.9358 292.558 19.9919 292.12C21.0481 291.683 21.9508 290.942 22.5859 289.991C23.221 289.041 23.56 287.923 23.56 286.78C23.56 285.247 22.951 283.777 21.8671 282.693C20.7831 281.609 19.313 281 17.78 281Z" fill="#2AAFEB"/>
<path d="M30.98 72.92C29.9982 72.9239 29.0372 72.6364 28.2189 72.0938C27.4007 71.5512 26.7618 70.7779 26.3833 69.872C26.0049 68.966 25.9038 67.9681 26.0929 67.0046C26.282 66.0412 26.7528 65.1555 27.4457 64.4598C28.1385 63.7642 29.0223 63.2898 29.985 63.0968C30.9477 62.9038 31.946 63.0008 32.8535 63.3756C33.761 63.7505 34.5368 64.3862 35.0827 65.2023C35.6286 66.0184 35.92 66.9781 35.92 67.96C35.92 69.272 35.4002 70.5306 34.4743 71.4602C33.5485 72.3898 32.292 72.9147 30.98 72.92ZM30.98 65.02C30.3929 65.016 29.8179 65.1868 29.328 65.5105C28.8382 65.8342 28.4557 66.2963 28.2292 66.8379C28.0027 67.3796 27.9424 67.9764 28.056 68.5525C28.1696 69.1285 28.4519 69.6578 28.867 70.0729C29.2822 70.4881 29.8115 70.7704 30.3875 70.884C30.9635 70.9976 31.5603 70.9373 32.102 70.7107C32.6437 70.4842 33.1058 70.1018 33.4295 69.6119C33.7532 69.1221 33.924 68.5471 33.92 67.96C33.92 67.1802 33.6103 66.4324 33.0589 65.8811C32.5075 65.3297 31.7597 65.02 30.98 65.02Z" fill="#7FD6C3"/>
<path d="M165.96 147.92C164.978 147.92 164.018 147.629 163.202 147.083C162.386 146.537 161.75 145.761 161.376 144.853C161.001 143.946 160.904 142.948 161.097 141.985C161.29 141.022 161.764 140.139 162.46 139.446C163.156 138.753 164.041 138.282 165.005 138.093C165.968 137.904 166.966 138.005 167.872 138.383C168.778 138.762 169.551 139.401 170.094 140.219C170.636 141.037 170.924 141.998 170.92 142.98C170.915 144.292 170.39 145.548 169.46 146.474C168.531 147.4 167.272 147.92 165.96 147.92ZM165.96 139.92C165.375 139.92 164.802 140.094 164.315 140.419C163.829 140.744 163.449 141.206 163.225 141.747C163.001 142.288 162.943 142.883 163.057 143.457C163.171 144.032 163.453 144.559 163.867 144.973C164.281 145.387 164.808 145.669 165.382 145.783C165.957 145.897 166.552 145.839 167.093 145.615C167.634 145.391 168.096 145.011 168.421 144.524C168.746 144.038 168.92 143.465 168.92 142.88C168.899 142.111 168.577 141.38 168.024 140.846C167.47 140.311 166.729 140.014 165.96 140.02V139.92Z" fill="#7FD6C3"/>
<path d="M125 230C123.022 230 121.089 229.414 119.444 228.315C117.8 227.216 116.518 225.654 115.761 223.827C115.004 222 114.806 219.989 115.192 218.049C115.578 216.109 116.53 214.327 117.929 212.929C119.327 211.53 121.109 210.578 123.049 210.192C124.989 209.806 127 210.004 128.827 210.761C130.654 211.518 132.216 212.8 133.315 214.444C134.414 216.089 135 218.022 135 220C135 222.652 133.946 225.196 132.071 227.071C130.196 228.946 127.652 230 125 230ZM125 212C123.418 212 121.871 212.469 120.555 213.348C119.24 214.227 118.214 215.477 117.609 216.939C117.003 218.4 116.845 220.009 117.154 221.561C117.462 223.113 118.224 224.538 119.343 225.657C120.462 226.776 121.887 227.538 123.439 227.846C124.991 228.155 126.6 227.997 128.061 227.391C129.523 226.786 130.773 225.76 131.652 224.445C132.531 223.129 133 221.582 133 220C132.995 217.882 132.15 215.852 130.65 214.356C129.15 212.86 127.118 212.02 125 212.02V212Z" fill="#0E0049"/>
<path d="M293 20C291.022 20 289.089 19.4135 287.444 18.3147C285.8 17.2159 284.518 15.6541 283.761 13.8268C283.004 11.9996 282.806 9.98891 283.192 8.0491C283.578 6.10929 284.53 4.32746 285.929 2.92894C287.327 1.53041 289.109 0.578003 291.049 0.192151C292.989 -0.193701 295 0.00433564 296.827 0.761212C298.654 1.51809 300.216 2.79981 301.315 4.4443C302.414 6.08879 303 8.0222 303 10C303 12.6522 301.946 15.1957 300.071 17.0711C298.196 18.9464 295.652 20 293 20ZM293 2.00001C291.418 2.00001 289.871 2.4692 288.555 3.34825C287.24 4.2273 286.214 5.47673 285.609 6.93853C285.003 8.40034 284.845 10.0089 285.154 11.5607C285.462 13.1126 286.224 14.538 287.343 15.6569C288.462 16.7757 289.887 17.5376 291.439 17.8463C292.991 18.155 294.6 17.9965 296.061 17.391C297.523 16.7855 298.773 15.7602 299.652 14.4446C300.531 13.129 301 11.5823 301 10C300.995 7.88175 300.15 5.85204 298.65 4.35608C297.15 2.86011 295.118 2.01999 293 2.02V2.00001Z" fill="#0E0049"/>
</svg>
