<svg width="316" height="430" viewBox="0 0 316 430" fill="none" xmlns="http://www.w3.org/2000/svg">
<path d="M210.52 303C210.7 303 210.877 303.048 211.031 303.139C211.186 303.231 211.314 303.362 211.4 303.52L217.06 313.92L227.44 319.54C227.598 319.626 227.729 319.754 227.821 319.909C227.912 320.064 227.96 320.24 227.96 320.42C227.957 320.599 227.905 320.774 227.81 320.925C227.715 321.077 227.58 321.2 227.42 321.28L217.02 326.94L211.32 337.32C211.232 337.477 211.104 337.607 210.95 337.698C210.795 337.79 210.619 337.838 210.44 337.84C210.26 337.841 210.083 337.793 209.928 337.701C209.774 337.609 209.646 337.478 209.56 337.32L203.9 326.9L193.52 321.2C193.364 321.112 193.233 320.984 193.142 320.83C193.05 320.675 193.002 320.5 193 320.32C193.009 320.14 193.064 319.965 193.158 319.811C193.252 319.658 193.384 319.53 193.54 319.44L203.94 313.78L209.64 303.54C209.725 303.38 209.852 303.245 210.007 303.151C210.161 303.056 210.338 303.004 210.52 303ZM224.86 320.5L215.84 315.54C215.674 315.444 215.536 315.306 215.44 315.14L210.52 306.08L205.54 315.12C205.456 315.283 205.323 315.416 205.16 315.5L196.16 320.42L205.18 325.4C205.35 325.49 205.49 325.63 205.58 325.8L210.5 334.86L215.48 325.82C215.57 325.65 215.709 325.51 215.88 325.42L224.86 320.5Z" fill="#2AAFEB"/>
<path d="M228.2 0.00420761C228.377 0.00296021 228.552 0.0509033 228.703 0.142696C228.855 0.234489 228.979 0.366554 229.06 0.524227L234.92 11.3042L245.66 17.2042C245.816 17.2922 245.947 17.4199 246.038 17.5744C246.129 17.7289 246.178 17.9048 246.18 18.0842C246.18 18.2641 246.132 18.4408 246.041 18.5956C245.949 18.7505 245.818 18.8779 245.66 18.9642L234.88 24.8242L228.88 35.5642C228.792 35.7206 228.664 35.8511 228.51 35.9424C228.355 36.0337 228.179 36.0826 228 36.0842C227.82 36.0847 227.643 36.0366 227.488 35.9451C227.334 35.8536 227.206 35.722 227.12 35.5642L221.26 24.7842L210.52 18.7842C210.362 18.6979 210.231 18.5705 210.139 18.4156C210.047 18.2608 209.999 18.0841 210 17.9042C209.999 17.7268 210.047 17.5526 210.138 17.4008C210.23 17.2489 210.362 17.1255 210.52 17.0442L221.3 11.1842L227.3 0.44421C227.395 0.29512 227.529 0.175167 227.688 0.0975304C227.847 0.0198936 228.024 -0.0124207 228.2 0.00420761ZM243.18 18.0042L233.78 12.8242C233.609 12.7341 233.47 12.5947 233.38 12.4242L228.26 3.00421L223.1 12.4042C222.998 12.5657 222.861 12.7024 222.7 12.8042L213.18 18.0042L222.58 23.1642C222.746 23.2604 222.884 23.3983 222.98 23.5642L228.1 33.0042L233.28 23.6042C233.359 23.4255 233.501 23.2828 233.68 23.2042L243.18 18.0042Z" fill="#2AAFEB"/>
<path d="M289.26 223.024C289.525 223.024 289.779 223.13 289.967 223.317C290.154 223.505 290.26 223.759 290.26 224.024V235.084C290.26 235.349 290.154 235.604 289.967 235.791C289.779 235.979 289.525 236.084 289.26 236.084C288.995 236.084 288.74 235.979 288.553 235.791C288.365 235.604 288.26 235.349 288.26 235.084V224.024C288.26 223.759 288.365 223.505 288.553 223.317C288.74 223.13 288.995 223.024 289.26 223.024Z" fill="#0E0049"/>
<path d="M289.26 194.624C289.525 194.624 289.779 194.73 289.967 194.917C290.154 195.105 290.26 195.359 290.26 195.624V206.684C290.26 206.95 290.154 207.204 289.967 207.391C289.779 207.579 289.525 207.684 289.26 207.684C288.995 207.684 288.74 207.579 288.553 207.391C288.365 207.204 288.26 206.95 288.26 206.684V195.624C288.26 195.359 288.365 195.105 288.553 194.917C288.74 194.73 288.995 194.624 289.26 194.624Z" fill="#0E0049"/>
<path d="M269.54 214.344H280.6C280.864 214.349 281.115 214.456 281.302 214.643C281.488 214.829 281.595 215.081 281.6 215.344C281.6 215.609 281.495 215.864 281.307 216.051C281.12 216.239 280.865 216.344 280.6 216.344H269.54C269.275 216.344 269.021 216.239 268.833 216.051C268.645 215.864 268.54 215.609 268.54 215.344C268.54 215.079 268.645 214.825 268.833 214.637C269.021 214.45 269.275 214.344 269.54 214.344Z" fill="#0E0049"/>
<path d="M297.94 214.344H309C309.264 214.349 309.515 214.456 309.701 214.643C309.888 214.829 309.995 215.081 310 215.344C310 215.609 309.895 215.864 309.707 216.051C309.52 216.239 309.265 216.344 309 216.344H297.94C297.675 216.344 297.42 216.239 297.233 216.051C297.045 215.864 296.94 215.609 296.94 215.344C296.94 215.079 297.045 214.825 297.233 214.637C297.42 214.45 297.675 214.344 297.94 214.344Z" fill="#0E0049"/>
<path d="M303.22 200.404C303.479 200.41 303.728 200.51 303.92 200.684C304.014 200.777 304.088 200.888 304.139 201.01C304.19 201.131 304.216 201.262 304.216 201.394C304.216 201.526 304.19 201.657 304.139 201.779C304.088 201.901 304.014 202.011 303.92 202.104L296.1 209.924C295.912 210.112 295.656 210.218 295.39 210.218C295.124 210.218 294.868 210.112 294.68 209.924C294.492 209.736 294.386 209.48 294.386 209.214C294.386 208.948 294.492 208.693 294.68 208.504L302.5 200.684C302.697 200.505 302.954 200.406 303.22 200.404Z" fill="#0E0049"/>
<path d="M283.14 220.484C283.4 220.49 283.648 220.59 283.84 220.764C284.025 220.955 284.128 221.209 284.128 221.474C284.128 221.739 284.025 221.994 283.84 222.184L276.02 230.004C275.927 230.098 275.817 230.172 275.695 230.223C275.573 230.274 275.442 230.3 275.31 230.3C275.178 230.3 275.048 230.274 274.926 230.223C274.804 230.172 274.693 230.098 274.6 230.004C274.416 229.814 274.313 229.559 274.313 229.294C274.313 229.029 274.416 228.775 274.6 228.584L282.42 220.764C282.618 220.585 282.874 220.486 283.14 220.484Z" fill="#0E0049"/>
<path d="M295.4 220.484C295.659 220.49 295.908 220.59 296.1 220.764L303.92 228.584C304.013 228.677 304.087 228.788 304.137 228.91C304.188 229.032 304.214 229.162 304.214 229.294C304.214 229.426 304.188 229.557 304.137 229.678C304.087 229.8 304.013 229.911 303.92 230.004C303.827 230.097 303.716 230.171 303.594 230.222C303.472 230.272 303.342 230.298 303.21 230.298C303.078 230.298 302.947 230.272 302.826 230.222C302.704 230.171 302.593 230.097 302.5 230.004L294.68 222.164C294.495 221.974 294.392 221.719 294.392 221.454C294.392 221.189 294.495 220.935 294.68 220.744C294.88 220.573 295.136 220.48 295.4 220.484Z" fill="#0E0049"/>
<path d="M275.32 200.404C275.579 200.41 275.828 200.51 276.02 200.684L283.74 208.504C283.928 208.693 284.034 208.948 284.034 209.214C284.034 209.48 283.928 209.736 283.74 209.924C283.552 210.112 283.296 210.218 283.03 210.218C282.764 210.218 282.508 210.112 282.32 209.924L274.6 202.164C274.416 201.974 274.312 201.719 274.312 201.454C274.312 201.189 274.416 200.935 274.6 200.744C274.788 200.543 275.046 200.422 275.32 200.404Z" fill="#0E0049"/>
<path d="M307.78 104C309.319 104 310.823 104.456 312.102 105.311C313.382 106.166 314.379 107.381 314.968 108.803C315.557 110.224 315.711 111.789 315.411 113.298C315.11 114.807 314.369 116.193 313.281 117.281C312.193 118.369 310.807 119.11 309.298 119.411C307.789 119.711 306.224 119.557 304.803 118.968C303.381 118.379 302.166 117.382 301.311 116.102C300.456 114.823 300 113.319 300 111.78C300 109.717 300.82 107.738 302.279 106.279C303.738 104.82 305.717 104 307.78 104ZM307.78 117.56C308.923 117.56 310.041 117.221 310.991 116.586C311.942 115.951 312.683 115.048 313.12 113.992C313.558 112.936 313.672 111.774 313.449 110.652C313.226 109.531 312.675 108.501 311.867 107.693C311.059 106.885 310.029 106.334 308.908 106.111C307.786 105.888 306.624 106.003 305.568 106.44C304.512 106.877 303.609 107.618 302.974 108.569C302.339 109.519 302 110.637 302 111.78C302 113.313 302.609 114.783 303.693 115.867C304.777 116.951 306.247 117.56 307.78 117.56Z" fill="#2AAFEB"/>
<path d="M295.02 352.164C296.002 352.16 296.963 352.448 297.781 352.99C298.599 353.533 299.238 354.306 299.617 355.212C299.995 356.118 300.096 357.116 299.907 358.08C299.718 359.043 299.247 359.929 298.554 360.624C297.861 361.32 296.978 361.794 296.015 361.987C295.052 362.18 294.054 362.083 293.147 361.709C292.239 361.334 291.463 360.698 290.917 359.882C290.371 359.066 290.08 358.106 290.08 357.124C290.08 355.812 290.6 354.554 291.526 353.624C292.452 352.694 293.708 352.17 295.02 352.164ZM295.02 360.064C295.607 360.068 296.182 359.897 296.672 359.574C297.162 359.25 297.544 358.788 297.771 358.246C297.997 357.705 298.058 357.108 297.944 356.532C297.83 355.956 297.548 355.426 297.133 355.011C296.718 354.596 296.189 354.314 295.613 354.2C295.036 354.087 294.44 354.147 293.898 354.373C293.356 354.6 292.894 354.982 292.57 355.472C292.247 355.962 292.076 356.537 292.08 357.124C292.08 357.904 292.39 358.652 292.941 359.203C293.492 359.755 294.24 360.064 295.02 360.064Z" fill="#7FD6C3"/>
<path d="M205.04 242.164C206.022 242.164 206.982 242.456 207.798 243.002C208.614 243.547 209.25 244.323 209.624 245.231C209.999 246.138 210.096 247.137 209.903 248.099C209.71 249.062 209.236 249.946 208.54 250.639C207.844 251.331 206.959 251.802 205.995 251.991C205.032 252.18 204.034 252.079 203.128 251.701C202.222 251.322 201.449 250.684 200.906 249.865C200.364 249.047 200.076 248.086 200.08 247.104C200.085 245.792 200.61 244.536 201.54 243.61C202.469 242.684 203.728 242.164 205.04 242.164ZM205.04 250.164C205.625 250.164 206.198 249.991 206.685 249.665C207.171 249.34 207.551 248.878 207.775 248.337C207.999 247.796 208.057 247.201 207.943 246.627C207.829 246.053 207.547 245.525 207.133 245.111C206.719 244.697 206.192 244.415 205.618 244.301C205.043 244.187 204.448 244.246 203.907 244.47C203.366 244.694 202.904 245.073 202.579 245.56C202.254 246.047 202.08 246.619 202.08 247.204C202.101 247.973 202.423 248.704 202.976 249.239C203.53 249.773 204.271 250.07 205.04 250.064V250.164Z" fill="#7FD6C3"/>
<path d="M160 175C161.978 175 163.911 175.586 165.556 176.685C167.2 177.784 168.482 179.346 169.239 181.173C169.996 183 170.194 185.011 169.808 186.951C169.422 188.891 168.47 190.673 167.071 192.071C165.673 193.47 163.891 194.422 161.951 194.808C160.011 195.194 158 194.996 156.173 194.239C154.346 193.482 152.784 192.2 151.685 190.556C150.586 188.911 150 186.978 150 185C150 182.348 151.054 179.804 152.929 177.929C154.804 176.054 157.348 175 160 175ZM160 193C161.582 193 163.129 192.531 164.445 191.652C165.76 190.773 166.786 189.523 167.391 188.061C167.997 186.6 168.155 184.991 167.846 183.439C167.538 181.887 166.776 180.462 165.657 179.343C164.538 178.224 163.113 177.462 161.561 177.154C160.009 176.845 158.4 177.003 156.939 177.609C155.477 178.214 154.227 179.24 153.348 180.555C152.469 181.871 152 183.418 152 185C152.005 187.118 152.85 189.148 154.35 190.644C155.85 192.14 157.882 192.98 160 192.98V193Z" fill="#0E0049"/>
<path d="M9.99999 347C11.9778 347 13.9112 347.586 15.5557 348.685C17.2002 349.784 18.4819 351.346 19.2388 353.173C19.9957 355 20.1937 357.011 19.8078 358.951C19.422 360.891 18.4696 362.673 17.0711 364.071C15.6725 365.47 13.8907 366.422 11.9509 366.808C10.0111 367.194 8.00041 366.996 6.17314 366.239C4.34588 365.482 2.78411 364.2 1.68529 362.556C0.586477 360.911 -1.14441e-05 358.978 -1.14441e-05 357C-1.14441e-05 354.348 1.05355 351.804 2.92891 349.929C4.80428 348.054 7.34782 347 9.99999 347ZM9.99999 365C11.5822 365 13.129 364.531 14.4446 363.652C15.7602 362.773 16.7855 361.523 17.391 360.061C17.9965 358.6 18.155 356.991 17.8463 355.439C17.5376 353.887 16.7757 352.462 15.6568 351.343C14.538 350.224 13.1126 349.462 11.5607 349.154C10.0089 348.845 8.40033 349.003 6.93853 349.609C5.47672 350.214 4.22728 351.24 3.34822 352.555C2.46917 353.871 1.99999 355.418 1.99999 357C2.00528 359.118 2.85049 361.148 4.35021 362.644C5.84993 364.14 7.88172 364.98 9.99999 364.98V365Z" fill="#0E0049"/>
<path d="M253.353 166.89C253.225 166.763 253.133 166.606 253.086 166.433C253.039 166.259 253.039 166.077 253.085 165.903L254.866 159.6L252.943 153.346C252.892 153.174 252.888 152.991 252.93 152.817C252.972 152.642 253.06 152.482 253.184 152.353C253.309 152.223 253.467 152.13 253.64 152.083C253.814 152.036 253.997 152.036 254.17 152.085L260.474 153.866L266.742 151.957C266.91 151.9 267.091 151.892 267.264 151.932C267.436 151.972 267.595 152.059 267.721 152.184C267.849 152.307 267.94 152.463 267.985 152.634C268.03 152.806 268.026 152.987 267.975 153.156L266.208 159.474L268.117 165.714C268.167 165.886 268.172 166.068 268.129 166.243C268.087 166.417 267.999 166.577 267.875 166.707C267.75 166.836 267.593 166.929 267.419 166.977C267.245 167.024 267.062 167.023 266.889 166.975L260.585 165.194L254.332 167.117C254.163 167.167 253.984 167.172 253.812 167.132C253.641 167.092 253.482 167.009 253.353 166.89ZM255.391 154.501L256.856 159.304C256.916 159.487 256.918 159.684 256.864 159.869L255.501 164.683L260.304 163.217C260.489 163.165 260.684 163.163 260.87 163.21L265.683 164.573L264.217 159.77C264.156 159.591 264.158 159.396 264.224 159.218L265.573 154.391L260.77 155.856C260.596 155.915 260.408 155.917 260.232 155.864L255.391 154.501Z" fill="#2AAFEB"/>
<path d="M102.541 304.365C102.41 304.241 102.316 304.084 102.269 303.91C102.221 303.736 102.223 303.552 102.273 303.379L105.215 292.929L102.048 282.534C101.994 282.362 101.987 282.179 102.029 282.003C102.071 281.828 102.159 281.667 102.285 281.538C102.411 281.408 102.569 281.316 102.744 281.269C102.918 281.222 103.102 281.224 103.275 281.273L113.725 284.215L124.119 281.047C124.292 280.997 124.474 280.992 124.648 281.034C124.823 281.077 124.983 281.164 125.113 281.288C125.24 281.415 125.332 281.572 125.379 281.746C125.426 281.919 125.427 282.101 125.381 282.275L122.439 292.724L125.607 303.119C125.657 303.291 125.662 303.474 125.619 303.648C125.577 303.823 125.489 303.983 125.365 304.113C125.233 304.235 125.072 304.323 124.897 304.367C124.723 304.411 124.539 304.411 124.365 304.366L113.915 301.425L103.535 304.606C103.363 304.657 103.18 304.662 103.006 304.619C102.831 304.577 102.671 304.489 102.541 304.365ZM104.496 283.689L107.219 292.619C107.267 292.8 107.264 292.991 107.213 293.171L104.69 302.158L113.62 299.435C113.803 299.375 114 299.373 114.185 299.427L123.144 301.95L120.435 293.034C120.39 292.849 120.388 292.655 120.427 292.469L122.965 283.496L114.035 286.219C113.849 286.264 113.656 286.266 113.469 286.227L104.496 283.689Z" fill="#7FD6C3"/>
<path opacity="0.72" d="M158.013 398.514C157.183 397.705 156.611 396.669 156.369 395.535C156.128 394.402 156.228 393.222 156.657 392.145C157.086 391.068 157.824 390.143 158.779 389.486C159.734 388.829 160.862 388.47 162.021 388.455C163.18 388.439 164.318 388.767 165.29 389.398C166.262 390.029 167.026 390.934 167.484 391.998C167.942 393.063 168.074 394.24 167.863 395.379C167.652 396.519 167.108 397.571 166.3 398.401C165.216 399.515 163.734 400.153 162.18 400.174C160.626 400.195 159.127 399.598 158.013 398.514ZM164.779 391.562C164.231 391.029 163.537 390.671 162.786 390.532C162.034 390.394 161.258 390.482 160.557 390.785C159.855 391.088 159.259 391.592 158.844 392.234C158.43 392.876 158.215 393.627 158.227 394.391C158.24 395.155 158.478 395.898 158.914 396.527C159.349 397.155 159.961 397.64 160.672 397.92C161.383 398.2 162.161 398.263 162.908 398.1C163.655 397.937 164.337 397.557 164.867 397.006C165.575 396.271 165.963 395.286 165.946 394.266C165.93 393.246 165.51 392.274 164.779 391.562Z" fill="#2AAFEB"/>
<path d="M198.342 98.3667C197.239 97.2935 196.48 95.9174 196.159 94.4124C195.838 92.9074 195.971 91.3412 196.541 89.9117C197.11 88.4823 198.091 87.2539 199.359 86.3817C200.626 85.5096 202.124 85.0329 203.663 85.0121C205.201 84.9912 206.712 85.4271 208.003 86.2646C209.293 87.102 210.307 88.3034 210.915 89.7169C211.523 91.1304 211.698 92.6925 211.419 94.2056C211.139 95.7187 210.417 97.1149 209.344 98.2176C207.902 99.6914 205.935 100.534 203.873 100.562C201.812 100.59 199.823 99.8009 198.342 98.3667ZM207.8 88.6493C206.98 87.852 205.943 87.3155 204.819 87.1077C203.695 86.8999 202.534 87.03 201.484 87.4818C200.434 87.9335 199.541 88.6866 198.919 89.6456C198.297 90.6046 197.973 91.7266 197.989 92.8696C198.004 94.0127 198.358 95.1255 199.006 96.0674C199.654 97.0092 200.567 97.7378 201.629 98.1609C202.691 98.584 203.854 98.6827 204.973 98.4445C206.091 98.2063 207.113 97.6419 207.91 96.8226C208.979 95.7241 209.568 94.2458 209.548 92.713C209.527 91.1802 208.898 89.7185 207.8 88.6493Z" fill="#7FD6C3"/>
</svg>
