<svg width="43" height="43" viewBox="0 0 43 43" fill="none" xmlns="http://www.w3.org/2000/svg">
<path d="M19.3278 5.55888C20.215 3.76117 22.7786 3.76116 23.6658 5.55888L27.8905 14.119L37.3371 15.4916C39.321 15.7799 40.1131 18.218 38.6776 19.6173L31.8419 26.2803L33.4556 35.6887C33.7944 37.6648 31.7206 39.1716 29.9461 38.2386L21.4968 33.7966L13.0475 38.2386C11.2731 39.1716 9.19915 37.6648 9.53804 35.6887L11.1517 26.2803L4.31609 19.6173C2.88051 18.218 3.67268 15.7799 5.65659 15.4916L15.1032 14.119L19.3278 5.55888ZM21.4968 7.2366L17.4507 15.4351C17.0983 16.1489 16.4173 16.6437 15.6295 16.7582L6.58194 18.0729L13.1288 24.4545C13.6989 25.0102 13.959 25.8108 13.8244 26.5955L12.2789 35.6065L20.3713 31.352C21.0759 30.9815 21.9177 30.9815 22.6223 31.352L30.7148 35.6065L29.1693 26.5955C29.0347 25.8108 29.2949 25.0102 29.8648 24.4545L36.4117 18.0729L27.3642 16.7582C26.5764 16.6437 25.8953 16.1489 25.5431 15.4351L21.4968 7.2366Z" fill="#212121"/>
</svg>
