<svg width="20" height="21" viewBox="0 0 20 21" fill="none" xmlns="http://www.w3.org/2000/svg">
<path d="M10.0007 2.16589C14.6038 2.16589 18.3353 5.89744 18.3353 10.5005C18.3353 15.1036 14.6038 18.8351 10.0007 18.8351C5.39756 18.8351 1.66602 15.1036 1.66602 10.5005C1.66602 5.89744 5.39756 2.16589 10.0007 2.16589ZM12.4498 14.2503H7.55156C8.09492 16.262 9.03942 17.5851 10.0007 17.5851C10.9619 17.5851 11.9063 16.262 12.4498 14.2503ZM6.25757 14.2508L3.98883 14.2506C4.78745 15.5282 5.98198 16.5329 7.40064 17.0929C6.96541 16.4096 6.60625 15.5545 6.34208 14.58L6.25757 14.2508ZM16.0124 14.2506L13.7438 14.2508C13.4739 15.3622 13.0843 16.3337 12.5998 17.0929C13.9306 16.5679 15.0637 15.652 15.8581 14.487L16.0124 14.2506ZM5.91183 8.83331H3.11382L3.10986 8.84763C2.98312 9.37796 2.91602 9.93138 2.91602 10.5005C2.91602 11.3806 3.07651 12.2233 3.36982 13.0008L6.01412 13.0005C5.89554 12.2095 5.83268 11.3694 5.83268 10.5005C5.83268 9.93054 5.85974 9.37288 5.91183 8.83331ZM12.8314 8.83337H7.16987C7.11318 9.36696 7.08268 9.92504 7.08268 10.5005C7.08268 11.3835 7.15447 12.2254 7.28246 13.0006H12.7188C12.8468 12.2254 12.9186 11.3835 12.9186 10.5005C12.9186 9.92504 12.8881 9.36696 12.8314 8.83337ZM16.8878 8.83262L14.0894 8.83333C14.1416 9.37288 14.1686 9.93054 14.1686 10.5005C14.1686 11.3694 14.1058 12.2095 13.9872 13.0005L16.6314 13.0008C16.9248 12.2233 17.0853 11.3806 17.0853 10.5005C17.0853 9.92604 17.0169 9.36746 16.8878 8.83262ZM7.40152 3.90815L7.38243 3.91541C5.67633 4.59434 4.29632 5.91709 3.54243 7.58365L6.08253 7.58395C6.34367 6.12329 6.79937 4.85169 7.40152 3.90815ZM10.0007 3.41589L9.90426 3.42031C8.84976 3.51678 7.831 5.18508 7.35791 7.5836H12.6434C12.1716 5.1918 11.1573 3.52614 10.1059 3.42116L10.0007 3.41589ZM12.6007 3.9082L12.6897 4.05328C13.2473 4.98033 13.6708 6.1969 13.9188 7.58395L16.4588 7.58365C15.7383 5.99081 14.4458 4.71204 12.8433 4.00926L12.6007 3.9082Z" fill="#5C5C5C"/>
</svg>
